G04 #@! TF.GenerationSoftware,KiCad,Pcbnew,7.0.5-0*
G04 #@! TF.CreationDate,2024-06-26T19:37:14+02:00*
G04 #@! TF.ProjectId,lumberjack,6c756d62-6572-46a6-9163-6b2e6b696361,1.9*
G04 #@! TF.SameCoordinates,Original*
G04 #@! TF.FileFunction,Profile,NP*
%FSLAX46Y46*%
G04 Gerber Fmt 4.6, Leading zero omitted, Abs format (unit mm)*
G04 Created by KiCad (PCBNEW 7.0.5-0) date 2024-06-26 19:37:14*
%MOMM*%
%LPD*%
G01*
G04 APERTURE LIST*
G04 #@! TA.AperFunction,Profile*
%ADD10C,0.200000*%
G04 #@! TD*
G04 APERTURE END LIST*
D10*
X292500000Y-55293750D02*
X288682488Y-55293750D01*
X191553790Y-55293750D02*
X170810606Y-55287500D01*
X196512986Y-57980924D02*
G75*
G03*
X203000000Y-55293915I2687009J2687010D01*
G01*
X233230034Y-56100202D02*
G75*
G03*
X231900000Y-55293750I-1329998J-693488D01*
G01*
X245305408Y-55293751D02*
G75*
G03*
X243975375Y-56100202I115J-1500189D01*
G01*
X191553790Y-55293750D02*
G75*
G03*
X194240964Y-57980924I2687177J3D01*
G01*
X196512986Y-57980924D02*
X194240964Y-57980924D01*
X233230035Y-56100202D02*
G75*
G03*
X243975373Y-56100202I5372669J2801572D01*
G01*
X251100000Y-55293750D02*
X245305408Y-55293750D01*
X203000000Y-55293750D02*
X231900000Y-55293750D01*
X252430035Y-56100202D02*
G75*
G03*
X263175373Y-56100202I5372669J2801572D01*
G01*
X264505408Y-55293751D02*
G75*
G03*
X263175375Y-56100202I115J-1500189D01*
G01*
X252430034Y-56100202D02*
G75*
G03*
X251100000Y-55293750I-1329998J-693488D01*
G01*
X280436276Y-55293750D02*
X264505408Y-55293750D01*
X72900000Y-55300000D02*
X101800000Y-55300000D01*
X40294592Y-55300000D02*
X24363724Y-55300000D01*
X59494592Y-55300000D02*
X53700000Y-55300000D01*
X41624627Y-56106452D02*
G75*
G03*
X52369965Y-56106452I5372669J2801572D01*
G01*
X41624608Y-56106461D02*
G75*
G03*
X40294592Y-55300000I-1330112J-693659D01*
G01*
X53700000Y-55300000D02*
G75*
G03*
X52369966Y-56106452I-36J-1499940D01*
G01*
X60824627Y-56106452D02*
G75*
G03*
X71569965Y-56106452I5372669J2801572D01*
G01*
X60824608Y-56106461D02*
G75*
G03*
X59494592Y-55300000I-1330112J-693659D01*
G01*
X72900000Y-55300000D02*
G75*
G03*
X71569966Y-56106452I-36J-1499940D01*
G01*
X110559036Y-57987174D02*
X108287014Y-57987174D01*
X101800000Y-55300165D02*
G75*
G03*
X108287014Y-57987174I3800005J1D01*
G01*
X110559036Y-57987174D02*
G75*
G03*
X113246210Y-55300000I-3J2687177D01*
G01*
X12300000Y-149493750D02*
X17903451Y-149493750D01*
X66035605Y-149493750D02*
X101800000Y-149493750D01*
X52630197Y-149493750D02*
X31900000Y-149493750D01*
X31899999Y-149493750D02*
G75*
G03*
X25412986Y-146806741I-3800004J0D01*
G01*
X20590625Y-146806576D02*
G75*
G03*
X17903451Y-149493750I0J-2687174D01*
G01*
X20599995Y-146806741D02*
X25412986Y-146806741D01*
X108287014Y-146806741D02*
G75*
G03*
X101800000Y-149493750I-2687009J-2687010D01*
G01*
X113246210Y-149500000D02*
G75*
G03*
X110559036Y-146812826I-2687176J-2D01*
G01*
X64705570Y-148687298D02*
G75*
G03*
X53960232Y-148687298I-5372669J-2801572D01*
G01*
X64705571Y-148687298D02*
G75*
G03*
X66035605Y-149493750I1330115J693681D01*
G01*
X52630197Y-149493749D02*
G75*
G03*
X53960230Y-148687298I38J1499936D01*
G01*
X108287014Y-146812826D02*
X110559036Y-146812826D01*
X194240964Y-146812826D02*
X196512986Y-146812826D01*
X202999999Y-149493750D02*
G75*
G03*
X196512986Y-146806741I-3800004J0D01*
G01*
X194240964Y-146812827D02*
G75*
G03*
X191553790Y-149500000I0J-2687174D01*
G01*
X279387014Y-146806741D02*
G75*
G03*
X272900000Y-149493750I-2687009J-2687009D01*
G01*
X286896549Y-149493750D02*
G75*
G03*
X284209375Y-146806576I-2687174J0D01*
G01*
X279387014Y-146806741D02*
X284200005Y-146806741D01*
X250839768Y-148687298D02*
G75*
G03*
X240094430Y-148687298I-5372669J-2801572D01*
G01*
X238764395Y-149493750D02*
G75*
G03*
X240094429Y-148687298I-80J1500131D01*
G01*
X250839768Y-148687298D02*
G75*
G03*
X252169803Y-149493750I1329997J693486D01*
G01*
X191553790Y-149500000D02*
X113246211Y-149500000D01*
X294750000Y-147243750D02*
X294750000Y-57543750D01*
X272900000Y-149493750D02*
X252169803Y-149493750D01*
X163894457Y-56100187D02*
G75*
G03*
X162564394Y-55293750I-1330057J-693613D01*
G01*
X162564394Y-55293750D02*
X142235606Y-55293750D01*
X135319457Y-56100187D02*
G75*
G03*
X133989394Y-55293750I-1330057J-693613D01*
G01*
X135319429Y-56100201D02*
G75*
G03*
X140905570Y-56100202I2793071J1456401D01*
G01*
X12300000Y-55293750D02*
G75*
G03*
X10050000Y-57543750I0J-2250000D01*
G01*
X142235606Y-55293783D02*
G75*
G03*
X140905572Y-56100202I-6J-1500017D01*
G01*
X163894429Y-56100201D02*
G75*
G03*
X169480570Y-56100202I2793071J1456401D01*
G01*
X170810606Y-55293783D02*
G75*
G03*
X169480572Y-56100202I-6J-1500017D01*
G01*
X10050000Y-147243750D02*
X10050000Y-57543750D01*
X294750050Y-57543750D02*
G75*
G03*
X292500000Y-55293750I-2250050J-50D01*
G01*
X292500000Y-149493700D02*
G75*
G03*
X294750000Y-147243750I0J2250000D01*
G01*
X10050000Y-147243750D02*
G75*
G03*
X12300000Y-149493750I2250000J0D01*
G01*
X133989394Y-55293750D02*
X113246210Y-55300000D01*
X203000000Y-149493750D02*
X238764395Y-149493750D01*
X17447560Y-56100194D02*
G75*
G03*
X16117512Y-55293750I-1330060J-693606D01*
G01*
X24363724Y-55293799D02*
G75*
G03*
X23033691Y-56100202I-24J-1500001D01*
G01*
X17447551Y-56100199D02*
G75*
G03*
X23033688Y-56100202I2793069J1456449D01*
G01*
X281766244Y-56100237D02*
G75*
G03*
X287352453Y-56100201I2793095J1456537D01*
G01*
X281766305Y-56100205D02*
G75*
G03*
X280436276Y-55293750I-1330066J-693595D01*
G01*
X288682488Y-55293820D02*
G75*
G03*
X287352454Y-56100201I-49J-1499980D01*
G01*
X286896549Y-149493750D02*
X292500000Y-149493750D01*
X16117512Y-55293750D02*
X12300000Y-55293750D01*
M02*
